control3min_grf.mot
version=1
nRows=30
nColumns 19
inDegrees=yes
endheader
time	1_ground_force_vx	1_ground_force_vy	1_ground_force_vz	1_ground_force_px	1_ground_force_py	1_ground_force_pz	1_ground_torque_x	1_ground_torque_y	1_ground_torque_z	2_ground_force_vx	2_ground_force_vy	2_ground_force_vz	2_ground_force_px	2_ground_force_py	2_ground_force_pz	2_ground_torque_x	2_ground_torque_y	2_ground_torque_z
            0.005000	           -1.511009	          709.312239	          -73.352938	           -0.202850	            0.006279	           -0.417125	            0.003049	           -1.431441	            0.148031	           -7.224042	          631.434200	           51.764973	           -0.187223	            0.005883	           -0.718806	           -0.007918	            0.692100	            0.056738
            0.005500	           -0.964406	          716.707004	          -74.193863	           -0.202978	            0.006278	           -0.416974	            0.002189	           -1.627075	            0.168436	           -6.545014	          638.064495	           52.257610	           -0.187182	            0.005883	           -0.718790	           -0.006510	            0.634659	            0.051979
            0.006000	           -0.144078	          723.923886	          -75.586530	           -0.203223	            0.006279	           -0.417133	            0.000341	           -1.711785	            0.178731	           -6.055298	          645.245805	           52.940010	           -0.187460	            0.005883	           -0.718905	           -0.006783	            0.722831	            0.059306
            0.006500	            0.491414	          731.683857	          -77.526693	           -0.203313	            0.006278	           -0.416944	           -0.001078	           -1.604766	            0.170035	           -5.843775	          651.687407	           54.183037	           -0.187519	            0.005883	           -0.719003	           -0.007887	            0.879518	            0.073125
            0.007000	            1.220074	          738.179854	          -78.968076	           -0.203403	            0.006279	           -0.417057	           -0.002288	           -1.384004	            0.148056	           -5.631211	          657.763192	           54.767758	           -0.187714	            0.005882	           -0.718949	           -0.008319	            0.971738	            0.080910
            0.007500	            1.719157	          746.658699	          -80.400388	           -0.203461	            0.006277	           -0.416686	           -0.002771	           -1.203467	            0.129590	           -5.560362	          664.205413	           55.729278	           -0.187801	            0.005882	           -0.719015	           -0.007721	            0.922354	            0.077389
            0.008000	            1.623536	          753.873830	          -81.423932	           -0.203747	            0.006276	           -0.416470	           -0.002860	           -1.327839	            0.143416	           -5.256736	          671.017810	           56.363514	           -0.187858	            0.005882	           -0.719198	           -0.007116	            0.908299	            0.076294
            0.008500	            1.528910	          760.006052	          -82.131118	           -0.203839	            0.006277	           -0.416693	           -0.003268	           -1.624455	            0.175549	           -5.136461	          676.724306	           57.134673	           -0.188091	            0.005881	           -0.718998	           -0.006717	            0.884990	            0.074718
            0.009000	            1.800895	          766.859286	          -82.836123	           -0.203953	            0.006277	           -0.416638	           -0.004412	           -1.878638	            0.202930	           -4.270822	          683.540361	           57.346318	           -0.188300	            0.005880	           -0.719122	           -0.005047	            0.807830	            0.067774
            0.009500	            2.485111	          773.172619	          -83.727894	           -0.204086	            0.006277	           -0.416683	           -0.006087	           -1.893870	            0.205090	           -3.824694	          689.801240	           57.884668	           -0.188438	            0.005880	           -0.719154	           -0.005051	            0.910936	            0.076441
            0.010000	            3.167668	          779.849297	          -85.260094	           -0.204224	            0.006277	           -0.416735	           -0.006851	           -1.686668	            0.184402	           -3.378504	          696.061616	           58.563802	           -0.188569	            0.005880	           -0.719292	           -0.004723	            0.973120	            0.081874
            0.010500	            4.216804	          787.427404	          -86.789355	           -0.204289	            0.006276	           -0.416506	           -0.007545	           -1.408899	            0.155287	           -2.974265	          701.030769	           59.801494	           -0.188796	            0.005879	           -0.719138	           -0.003975	            0.936938	            0.079926
            0.011000	            4.669558	          794.825765	          -88.501319	           -0.204458	            0.006275	           -0.416303	           -0.007947	           -1.352663	            0.150615	           -2.996430	          707.288282	           60.809324	           -0.188869	            0.005879	           -0.719329	           -0.004252	            1.003729	            0.086296
            0.011500	            4.895263	          800.959032	          -89.438577	           -0.204551	            0.006275	           -0.416341	           -0.009232	           -1.510570	            0.168677	           -3.116927	          714.834335	           61.868722	           -0.188986	            0.005880	           -0.719669	           -0.004382	            1.004880	            0.086972
            0.012000	            5.030307	          807.090389	          -89.962909	           -0.204672	            0.006275	           -0.416289	           -0.011555	           -1.853910	            0.206647	           -2.710879	          719.252633	           62.682090	           -0.189061	            0.005879	           -0.719664	           -0.003541	            0.939536	            0.081880
            0.012500	            5.531083	          815.025715	          -90.755564	           -0.204897	            0.006274	           -0.416009	           -0.013439	           -1.980228	            0.220504	           -2.358307	          725.512001	           63.548976	           -0.189253	            0.005879	           -0.719844	           -0.003057	            0.940562	            0.082386
            0.013000	            5.941562	          819.714926	          -91.240910	           -0.205060	            0.006275	           -0.416215	           -0.014257	           -1.966971	            0.218940	           -2.049988	          731.035140	           64.272470	           -0.189153	            0.005879	           -0.719753	           -0.002953	            1.053011	            0.092581
            0.013500	            6.716014	          827.112095	          -92.632674	           -0.205184	            0.006273	           -0.415893	           -0.014675	           -1.807312	            0.202410	           -1.791054	          737.293668	           65.280181	           -0.189346	            0.005879	           -0.719905	           -0.002669	            1.098740	            0.097283
            0.014000	            7.536426	          833.247517	          -94.075831	           -0.205319	            0.006274	           -0.415956	           -0.014227	           -1.572945	            0.177590	           -1.479788	          742.077778	           66.658039	           -0.189379	            0.005879	           -0.719904	           -0.002323	            1.164990	            0.104647
            0.014500	            8.494663	          837.760667	          -95.526285	           -0.205298	            0.006275	           -0.416264	           -0.014978	           -1.477197	            0.168438	           -1.778880	          747.227926	           68.084400	           -0.189667	            0.005878	           -0.719910	           -0.002566	            1.077860	            0.098210
            0.015000	            8.903510	          845.155799	          -96.458603	           -0.205656	            0.006273	           -0.415838	           -0.017245	           -1.636991	            0.186832	           -1.940286	          753.116817	           69.044048	           -0.189629	            0.005879	           -0.720227	           -0.002855	            1.108203	            0.101598
            0.015500	            9.725533	          850.567603	          -97.308714	           -0.205646	            0.006274	           -0.416057	           -0.021166	           -1.851121	            0.211776	           -1.769550	          757.900375	           70.468895	           -0.189775	            0.005879	           -0.720175	           -0.002566	            1.099222	            0.102205
            0.016000	            9.907154	          855.796750	          -97.607748	           -0.205737	            0.006273	           -0.415925	           -0.023027	           -1.989104	            0.226867	           -1.695878	          763.604572	           71.803210	           -0.189852	            0.005879	           -0.720359	           -0.002530	            1.139267	            0.107127
            0.016500	           10.316734	          862.289539	          -98.314640	           -0.205859	            0.006273	           -0.415753	           -0.023784	           -1.987893	            0.226651	           -1.569600	          767.653573	           72.615391	           -0.189912	            0.005879	           -0.720272	           -0.002454	            1.200123	            0.113524
            0.017000	           11.047024	          867.341052	          -99.211936	           -0.205934	            0.006273	           -0.415901	           -0.022607	           -1.774978	            0.203033	           -1.400940	          772.990161	           73.854497	           -0.190072	            0.005879	           -0.720544	           -0.002364	            1.304566	            0.124643
            0.017500	           12.418579	          872.213375	         -100.340873	           -0.205962	            0.006274	           -0.416026	           -0.021322	           -1.497528	            0.172278	           -1.278026	          777.960140	           74.576092	           -0.190217	            0.005879	           -0.720663	           -0.002087	            1.270336	            0.121776
            0.018000	           13.056856	          877.806030	         -101.327342	           -0.206169	            0.006273	           -0.415885	           -0.022093	           -1.485305	            0.171452	           -1.150817	          781.822764	           75.997673	           -0.190153	            0.005879	           -0.720646	           -0.001760	            1.195434	            0.116203
            0.018500	           14.245314	          883.038321	         -102.316706	           -0.206206	            0.006273	           -0.415858	           -0.026030	           -1.613535	            0.186959	           -1.309359	          786.973419	           77.423974	           -0.190265	            0.005879	           -0.720837	           -0.002022	            1.215231	            0.119557
            0.019000	           14.151290	          888.989263	         -102.795390	           -0.206391	            0.006272	           -0.415719	           -0.030567	           -1.920215	            0.222038	           -1.182211	          790.836545	           78.704779	           -0.190410	            0.005878	           -0.720747	           -0.001926	            1.288707	            0.128253
            0.019500	           14.699948	          893.857495	         -103.005161	           -0.206475	            0.006272	           -0.415656	           -0.032376	           -1.968658	            0.226862	           -1.152271	          795.621482	           79.566548	           -0.190545	            0.005879	           -0.721096	           -0.001882	            1.299507	            0.129958
